<?xml version="1.0" encoding="UTF-8"?>
<!-- Created with Inkscape (http://www.inkscape.org/) -->
<svg width="170" height="53" version="1.1" viewBox="0 0 44.979 14.023" xmlns="http://www.w3.org/2000/svg">
 <g transform="matrix(.10052 0 0 -.10052 -73.347 57.156)">
  <g fill="#151a33">
   <path d="m888.53 536.37c6.861 6.334 14.546 8.341 23.17 6.234 6.009-1.469 9.817-6.04 9.929-12.258 0.216-12.055 0.08-24.116 0.127-36.175 4e-3 -1.03-0.306-1.386-1.343-1.343-1.731 0.072-3.468-0.016-5.202 0.027-3.779 0.095-6.375 2.783-6.396 6.712-0.038 6.936-0.011 13.873-0.011 20.809 0 0.63 0.01 1.261-2e-3 1.892-0.14 7.531-4.333 10.856-11.767 9.32-1.629-0.336-3.168-0.932-4.598-1.781-2.566-1.523-4.089-3.38-3.996-6.776 0.257-9.373 0.048-18.757 0.128-28.136 0.014-1.624-0.338-2.261-2.046-2.081-1.481 0.157-2.993 0.012-4.49 0.037-4.048 0.067-6.659 2.752-6.666 6.941-0.021 12.611-8e-3 25.222-8e-3 37.833 0 5.439-0.011 10.878 4e-3 16.316 0.012 4.336 2.19 6.553 6.49 6.647 1.654 0.036 3.334-0.113 4.957 0.13 1.648 0.247 1.753-0.455 1.744-1.775-0.05-7.398-0.024-14.797-0.024-22.573"/>
   <path d="m863.36 527.5c-4.519 3.937-9.555 5.795-15.328 5.647-1.777-0.046-3.428-0.506-4.902-1.487-1.167-0.777-2.003-1.844-1.901-3.322 0.1-1.466 1.261-2.164 2.435-2.627 3.314-1.304 6.86-1.707 10.308-2.49 3.073-0.698 6.104-1.533 8.883-3.052 9.482-5.181 10.116-18.224 1.133-24.239-5.265-3.525-11.248-4.277-17.41-3.941-6.666 0.364-12.799 2.314-18.239 6.306-1.131 0.83-1.395 1.563-0.472 2.643 0.099 0.116 0.151 0.274 0.222 0.414 2.858 5.655 5.391 6.698 11.036 3.485 3.963-2.256 8.393-3.048 12.996-2.496 1.358 0.163 2.621 0.572 3.72 1.368 2.681 1.942 2.445 5.178-0.535 6.586-3.091 1.46-6.506 1.776-9.798 2.516-2.686 0.604-5.356 1.238-7.903 2.319-5.014 2.127-8.336 5.563-8.764 11.242-0.468 6.196 2.058 10.882 7.384 13.97 5.802 3.365 12.101 3.63 18.537 2.526 3.116-0.535 6.111-1.49 8.904-3.003 3.12-1.692 4.042-4.44 2.461-7.537-0.817-1.6-1.784-3.124-2.767-4.828"/>
   <path d="m1158.9 536.06c2.975 2.669 5.948 4.93 9.54 6.264 5.636 2.092 5.974 1.896 5.974-3.874 0-1.497-0.033-2.995 0.01-4.49 0.054-1.981-0.937-2.884-2.852-2.938-2.445-0.068-4.868-0.285-7.177-1.188-4.001-1.565-5.674-3.992-5.675-8.244 0-8.901-0.044-17.803 0.04-26.704 0.016-1.635-0.363-2.245-2.055-2.07-1.481 0.154-2.991 0.017-4.487 0.035-4.063 0.05-6.476 2.501-6.496 6.722-0.036 7.72-0.01 15.44-0.01 23.16 0 4.49-0.015 8.98 0 13.47 0.016 3.656 1.943 5.646 5.619 5.849 0.472 0.026 0.946 0.012 1.418 3e-3 1.881-0.036 4.264 0.607 5.507-0.303 1.352-0.991 0.154-3.531 0.642-5.692"/>
   <path d="m1033.2 528.21c-3.251 10.764-12.55 16.56-23.621 14.885-4.597-0.696-8.312-3.036-11.768-6.826 0 1.655-0.094 2.687 0.021 3.696 0.184 1.617-0.337 2.286-2.053 2.124-1.562-0.147-3.152 0.022-4.725-0.043-3.95-0.164-6.391-2.691-6.407-6.652-0.026-6.066-7e-3 -12.133-7e-3 -18.2 0-11.975-0.015-23.951 8e-3 -35.926 9e-3 -4.045 2.643-6.731 6.561-6.791 1.576-0.024 3.163 0.113 4.725-0.036 1.643-0.155 1.922 0.536 1.907 2.003-0.068 6.933-0.041 13.866-0.01 20.799 3e-3 0.534-0.387 1.257 0.408 1.629 9.45-11.357 29.038-8.655 34.53 7.055 2.572 7.356 2.678 14.844 0.431 22.283m-12.298-14.667c-1.134-4.765-3.792-8.375-8.707-9.595-5.158-1.28-9.589 0.484-13.358 4.086-0.789 0.753-1.078 1.646-1.046 2.75 0.068 2.359 0.021 4.722 0.021 7.083 0 1.968 0.136 3.948-0.038 5.9-0.181 2.036 0.592 3.448 2.131 4.645 4.059 3.155 8.535 4.462 13.461 2.591 4.912-1.866 7.152-5.857 7.813-10.892 0.29-2.211 0.234-4.421-0.277-6.568"/>
   <path d="m1085 530.28c-5.451 14.299-22.817 17.634-33.672 6.849-0.242-0.24-0.458-0.411-0.796-0.209-0.148 5.135-0.148 5.135-5.397 5.132-0.157 0-0.315 1e-3 -0.473 0-4.916-0.02-7.26-2.337-7.261-7.198 0-16.717 0.185-33.437-0.082-50.15-0.129-7.988 1.783-10.718 10.263-10.312 2.226 0.106 3.052 0.37 2.978 2.879-0.21 7.132-0.074 14.274-0.074 21.47 1.012-0.126 1.338-0.829 1.819-1.294 8.175-7.927 22.206-7.339 29.173 1.676 7.366 9.53 7.63 20.38 3.522 31.157m-11.117-15.114c-0.803-4.954-2.934-9.042-7.905-10.846-5.049-1.833-9.567-0.4-13.602 2.91-1.347 1.105-2.099 2.383-1.932 4.264 0.187 2.109 0.043 4.247 0.043 6.372 0 2.047 0.113 4.101-0.034 6.137-0.133 1.851 0.594 3.116 1.948 4.268 4.415 3.759 10.597 4.632 15.151 2.056 4.739-2.679 7.342-8.918 6.331-15.161"/>
   <path d="m952.83 543.47c-15.007-0.106-25.71-10.734-25.73-25.551-0.021-15.257 10.576-25.933 25.75-25.944 15.222-0.011 26.016 10.641 26.067 25.723 0.05 14.905-11.057 25.878-26.087 25.772m11.95-30.381c-1.616-6.017-5.954-9.526-11.88-9.524-5.845 1e-3 -10.309 3.62-11.823 9.613-0.367 1.453-0.593 2.932-0.55 3.831-0.025 7.139 3.226 12.458 8.289 14.175 7.658 2.598 15.241-2.306 16.363-10.606 0.34-2.513 0.268-5.007-0.399-7.489"/>
   <path d="m1140.7 516.87c-0.151 2.347-0.424 4.719-0.97 7.002-2.118 8.862-6.548 16.04-15.879 18.517-9.528 2.529-18.413 0.865-25.486-6.445-7.504-7.757-9.01-17.167-5.827-27.177 3.092-9.725 10.284-14.996 20.257-16.428 7.544-1.083 14.77-0.045 21.329 4.119 2.342 1.487 2.667 3.056 1.213 5.369-0.963 1.533-2.035 2.998-2.991 4.536-0.488 0.785-0.874 0.9-1.609 0.261-2.397-2.083-5.335-3.018-8.372-3.562-5.917-1.061-11.337-0.28-15.372 4.768-0.841 1.053-1.554 2.231-0.823 3.679 0.742 1.471 2.013 1.796 3.549 1.78 4.496-0.046 8.992-0.016 13.488-0.016 4.654 0 9.308-0.016 13.961 6e-3 2.56 0.012 3.694 1.065 3.532 3.591m-13.629 5.767c-3.54 0.053-7.081 0.02-10.622 0.019-3.383 0-6.768 0.061-10.149-0.028-1.448-0.038-1.74 0.401-1.396 1.761 1.306 5.171 5.798 8.427 11.668 8.36 6.106-0.071 10.539-3.369 11.725-8.623 0.272-1.205-0.058-1.506-1.226-1.489"/>
  </g>
  <path d="m744.85 438.09c3.623 0 6.464 1.729 8.153 4.159 0.247 0.37 0.288 0.617 0.288 0.864 0 0.824-0.659 1.441-1.482 1.441-0.33 0-0.7-0.082-1.112-0.535-1.359-1.688-3.212-3.006-5.806-3.006-4.158 0-7.288 3.253-7.288 7.577 0 4.282 3.171 7.534 7.288 7.534 2.594 0 4.447-1.317 5.806-3.005 0.412-0.494 0.782-0.577 1.153-0.577 0.782 0 1.441 0.659 1.441 1.441 0 0.247-0.041 0.494-0.288 0.865-1.647 2.471-4.53 4.2-8.153 4.2-5.847 0-10.5-4.612-10.5-10.458 0-5.847 4.653-10.5 10.5-10.5m25.569 20.958c-5.887 0-10.499-4.571-10.499-10.458 0-5.806 4.612-10.418 10.458-10.459 5.888 0 10.541 4.653 10.541 10.459 0 5.846-4.653 10.458-10.5 10.458m0-2.924c4.118 0 7.247-3.252 7.247-7.576 0-4.241-3.17-7.493-7.288-7.493-4.117 0-7.205 3.211-7.205 7.493-0.041 4.324 3.088 7.576 7.246 7.576m41.339 2.924c-2.882 0-5.394-1.318-6.876-3.459-1.153 2.224-3.335 3.459-6.176 3.459-2.388 0-4.365-0.865-5.765-2.306v0.659c0 0.906-0.7 1.647-1.564 1.647-0.947 0-1.606-0.741-1.606-1.647v-17.664c0-0.906 0.659-1.647 1.606-1.647 0.864 0 1.564 0.7 1.564 1.647v10.994c0 3.17 2.059 5.393 5.106 5.393 2.882 0 4.776-2.141 4.776-5.393v-10.994c0-0.906 0.659-1.647 1.606-1.647 0.865 0 1.565 0.7 1.565 1.647v11.282c0 2.882 2.182 5.105 5.147 5.105 2.882 0 4.735-2.099 4.735-5.393v-10.994c0-0.906 0.658-1.647 1.605-1.647 0.865 0 1.565 0.7 1.565 1.647v11.405c0 4.859-2.8 7.906-7.288 7.906m27.834 0c-3.129 0-5.806-1.318-7.37-3.376v1.811c0 0.906-0.7 1.606-1.565 1.606-0.947 0-1.606-0.7-1.606-1.606v-25.199c0-0.905 0.659-1.647 1.606-1.647 0.865 0 1.565 0.7 1.565 1.647v9.182c1.564-2.058 4.282-3.376 7.37-3.376 5.682 0 9.923 4.488 9.923 10.5 0 5.97-4.241 10.458-9.923 10.458m-0.453-18.035c-4.2 0-6.959 3.047-6.959 7.577 0 4.488 2.8 7.534 6.959 7.534 4.117 0 7.123-3.211 7.123-7.576 0-4.323-3.006-7.535-7.123-7.535m28.657 17.747c-2.553 0-4.776-1.071-6.259-2.841v1.482c0 0.906-0.7 1.647-1.564 1.647-0.947 0-1.606-0.741-1.606-1.647v-17.664c0-0.906 0.659-1.647 1.606-1.647 0.864 0 1.564 0.7 1.564 1.647v10.129c0 3.417 2.636 5.929 6.259 5.929 0.906 0 1.606 0.576 1.606 1.482 0 0.865-0.7 1.483-1.606 1.483m15.564 0.288c-2.923 0-5.6-1.112-7.329-3.129-0.412-0.453-0.576-0.906-0.576-1.359 0-0.659 0.658-1.318 1.441-1.318 0.412 0 0.823 0.206 1.235 0.618 1.4 1.482 3.088 2.264 5.023 2.264 3.088 0 4.859-1.811 4.859-5.064v-1.729h-6.341c-4.364 0-7.206-2.224-7.206-5.6s2.8-5.641 7-5.641c2.8 0 5.065 1.029 6.547 2.8v-1.153c0-0.906 0.7-1.647 1.606-1.647 0.864 0 1.564 0.7 1.564 1.647v11.158c0 5.106-2.964 8.153-7.823 8.153m-1.482-18.323c-2.512 0-4.159 1.235-4.159 3.129s1.483 2.883 4.324 2.883h5.97v-0.494c0-3.047-2.759-5.518-6.135-5.518m44.674 18.323c-3.129 0-5.805-1.318-7.37-3.376v1.811c0 0.906-0.7 1.606-1.565 1.606-0.947 0-1.605-0.7-1.605-1.606v-25.199c0-0.905 0.658-1.647 1.605-1.647 0.865 0 1.565 0.7 1.565 1.647v9.182c1.565-2.058 4.282-3.376 7.37-3.376 5.682 0 9.923 4.488 9.923 10.5 0 5.97-4.241 10.458-9.923 10.458m-0.453-18.035c-4.2 0-6.958 3.047-6.958 7.577 0 4.488 2.8 7.534 6.958 7.534 4.118 0 7.124-3.211 7.124-7.576 0-4.323-3.006-7.535-7.124-7.535m28.657 17.747c-2.552 0-4.776-1.071-6.258-2.841v1.482c0 0.906-0.7 1.647-1.565 1.647-0.947 0-1.606-0.741-1.606-1.647v-17.664c0-0.906 0.659-1.647 1.606-1.647 0.865 0 1.565 0.7 1.565 1.647v10.129c0 3.417 2.635 5.929 6.258 5.929 0.906 0 1.606 0.576 1.606 1.482 0 0.865-0.7 1.483-1.606 1.483m17.417 0.288c-5.888 0-10.499-4.571-10.499-10.458 0-5.806 4.611-10.418 10.458-10.459 5.888 0 10.541 4.653 10.541 10.459 0 5.846-4.653 10.458-10.5 10.458m0-2.924c4.118 0 7.247-3.252 7.247-7.576 0-4.241-3.17-7.493-7.288-7.493-4.117 0-7.205 3.211-7.205 7.493-0.041 4.324 3.088 7.576 7.246 7.576m37.057 2.883c-0.947 0-1.606-0.7-1.606-1.647v-1.771c-1.564 2.1-4.282 3.459-7.452 3.459-5.641 0-9.841-4.323-9.841-10.17s4.2-10.129 9.841-10.129c3.17 0 5.888 1.276 7.452 3.335v-1.771c0-4.282-2.429-6.711-6.67-6.711-2.388 0-4.488 0.823-6.794 2.594-0.247 0.206-0.576 0.329-0.906 0.329-0.864 0-1.482-0.658-1.482-1.482 0-0.412 0.123-0.782 0.494-1.153 2.347-2.059 5.517-3.211 8.77-3.211 6.012 0 9.759 3.746 9.759 9.799v16.882c0 0.947-0.7 1.647-1.565 1.647m-8.564-17.335c-4.159 0-7.124 3.006-7.124 7.165 0 4.199 3.006 7.205 7.124 7.205 4.199 0 6.999-2.882 6.999-7.164 0-4.324-2.8-7.206-6.999-7.206m29.81 17.088c-2.553 0-4.776-1.071-6.259-2.841v1.482c0 0.906-0.7 1.647-1.564 1.647-0.947 0-1.606-0.741-1.606-1.647v-17.664c0-0.906 0.659-1.647 1.606-1.647 0.864 0 1.564 0.7 1.564 1.647v10.129c0 3.417 2.635 5.929 6.259 5.929 0.906 0 1.606 0.576 1.606 1.482 0 0.865-0.7 1.483-1.606 1.483m15.564 0.288c-2.923 0-5.6-1.112-7.329-3.129-0.412-0.453-0.577-0.906-0.577-1.359 0-0.659 0.659-1.318 1.442-1.318 0.411 0 0.823 0.206 1.235 0.618 1.4 1.482 3.088 2.264 5.023 2.264 3.088 0 4.859-1.811 4.859-5.064v-1.729h-6.341c-4.365 0-7.206-2.224-7.206-5.6s2.8-5.641 7-5.641c2.8 0 5.064 1.029 6.547 2.8v-1.153c0-0.906 0.7-1.647 1.606-1.647 0.864 0 1.564 0.7 1.564 1.647v11.158c0 5.106-2.964 8.153-7.823 8.153m-1.482-18.323c-2.512 0-4.159 1.235-4.159 3.129s1.482 2.883 4.323 2.883h5.971v-0.494c0-3.047-2.759-5.518-6.135-5.518m41.298 18.323c-2.882 0-5.394-1.318-6.876-3.459-1.153 2.224-3.336 3.459-6.177 3.459-2.388 0-4.364-0.865-5.764-2.306v0.659c0 0.906-0.7 1.647-1.565 1.647-0.947 0-1.606-0.741-1.606-1.647v-17.664c0-0.906 0.659-1.647 1.606-1.647 0.865 0 1.565 0.7 1.565 1.647v10.994c0 3.17 2.059 5.393 5.106 5.393 2.882 0 4.776-2.141 4.776-5.393v-10.994c0-0.906 0.659-1.647 1.606-1.647 0.864 0 1.564 0.7 1.564 1.647v11.282c0 2.882 2.183 5.105 5.147 5.105 2.882 0 4.735-2.099 4.735-5.393v-10.994c0-0.906 0.659-1.647 1.606-1.647 0.865 0 1.565 0.7 1.565 1.647v11.405c0 4.859-2.8 7.906-7.288 7.906m24.498 0c-2.923 0-5.599-1.112-7.329-3.129-0.411-0.453-0.576-0.906-0.576-1.359 0-0.659 0.659-1.318 1.441-1.318 0.412 0 0.823 0.206 1.235 0.618 1.4 1.482 3.088 2.264 5.024 2.264 3.088 0 4.858-1.811 4.858-5.064v-1.729h-6.341c-4.364 0-7.205-2.224-7.205-5.6s2.8-5.641 6.999-5.641c2.8 0 5.065 1.029 6.547 2.8v-1.153c0-0.906 0.7-1.647 1.606-1.647 0.865 0 1.565 0.7 1.565 1.647v11.158c0 5.106-2.965 8.153-7.824 8.153m-1.482-18.323c-2.512 0-4.159 1.235-4.159 3.129s1.483 2.883 4.324 2.883h5.97v-0.494c0-3.047-2.759-5.518-6.135-5.518m36.81 29.152c-0.947 0-1.606-0.741-1.606-1.647v-12.641c-1.564 2.1-4.282 3.459-7.411 3.459-5.641 0-9.923-4.488-9.923-10.5 0-5.97 4.282-10.458 9.923-10.458 3.17 0 5.847 1.318 7.411 3.417v-1.77c0-0.906 0.659-1.647 1.606-1.647 0.865 0 1.565 0.7 1.565 1.647v28.493c0 0.947-0.7 1.647-1.565 1.647m-8.564-28.864c-4.118 0-7.123 3.212-7.123 7.577 0 4.323 3.005 7.534 7.123 7.534 4.158 0 7-3.088 7-7.576s-2.842-7.535-7-7.535m27.586 18.035c-2.923 0-5.599-1.112-7.329-3.129-0.411-0.453-0.576-0.906-0.576-1.359 0-0.659 0.659-1.318 1.441-1.318 0.412 0 0.823 0.206 1.235 0.618 1.4 1.482 3.088 2.264 5.023 2.264 3.089 0 4.859-1.811 4.859-5.064v-1.729h-6.341c-4.364 0-7.205-2.224-7.205-5.6s2.8-5.641 6.999-5.641c2.8 0 5.065 1.029 6.547 2.8v-1.153c0-0.906 0.7-1.647 1.606-1.647 0.865 0 1.565 0.7 1.565 1.647v11.158c0 5.106-2.965 8.153-7.824 8.153m-1.482-18.323c-2.512 0-4.159 1.235-4.159 3.129s1.483 2.883 4.324 2.883h5.97v-0.494c0-3.047-2.759-5.518-6.135-5.518" fill="#225cb3"/>
  <path d="m732.29 527.44c0-26.019 21.39-46.819 46.804-44.26 19.014 1.915 34.703 17.267 37.777 36.961 0.377 2.418 0.562 4.803 0.569 7.146z" fill="#3bba79"/>
  <path d="m804.23 550.11c-6.721 11.1-19.041 18.134-32.818 16.746-4.375-0.44-8.534-1.754-12.308-3.772 1.278 0.121 2.598-0.298 3.585-1.267 1.222-1.201 1.613-2.929 1.168-4.469l0.01-0.011-0.227-0.857c2.654 1.271 5.528 2.102 8.533 2.405 10.767 1.084 20.391-4.432 25.617-13.125zm-56.07-14.72c0.92 5.897 3.621 11.181 7.483 15.249l-5.343 5.738c-5.01-5.235-8.516-12.054-9.706-19.673-0.307-1.972-0.458-3.918-0.464-5.829l7.668-0.014c6e-3 1.485 0.123 2.997 0.362 4.529m53.075 1.702c0.447-2.035 0.689-4.152 0.69-6.328l7.669-0.014c0 2.795-0.311 5.514-0.884 8.128-0.315-0.705-0.803-1.349-1.474-1.846-1.393-1.031-3.163-1.172-4.605-0.52l-0.013-8e-3z" fill="#3bba79"/>
  <path d="m774.86 493.07c-12.845 0-23.296 10.917-23.296 24.335h4.235c0-10.978 8.551-19.91 19.061-19.91s19.061 8.932 19.061 19.91h4.235c0-13.418-10.451-24.335-23.296-24.335" fill="#fff"/>
  <path d="m789.71 546.98 1e-3 -0.012 12.145-5.547 8e-3 6e-3c0.952-0.462 2.138-0.398 3.086 0.266 1.036 0.725 1.495 1.959 1.262 3.096l-1.028 13.013-5e-3 2e-3c-0.04 0.501-0.205 0.995-0.511 1.432-0.915 1.306-2.724 1.622-4.092 0.739l-6e-3 3e-3 -11.348-7.946 1e-3 -9e-3c-1.274-0.988-1.586-2.779-0.677-4.076 0.304-0.435 0.71-0.759 1.164-0.967" fill="#3bba79"/>
  <path d="m756.35 542.26 0.012 3e-3 3.24 12.952-6e-3 7e-3c0.28 1.021 1e-3 2.174-0.825 2.986-0.902 0.886-2.199 1.113-3.274 0.677l-12.607-3.382-2e-3 -6e-3c-0.485-0.13-0.94-0.383-1.314-0.764-1.118-1.137-1.099-2.973 0.018-4.157l-2e-3 -6e-3 9.881-9.71 8e-3 2e-3c1.204-1.073 3.023-1.052 4.132 0.077 0.373 0.379 0.617 0.836 0.739 1.321" fill="#3bba79"/>
 </g>
</svg>
